<svg width="450" height="450" xmlns="http://www.w3.org/2000/svg">
 <g>
  <title>Layer 1</title>
  <g id="svg_1">
   <g id="svg_2" fill="#e32526" fill-rule="nonzero" transform="matrix(1.09689 0 0 1.09689 59.2505 37.3857)">
    <path id="svg_3" d="m79.45858,164.29205c2.7,-10 5.9,-20.1 9.1,-27.7c-6.5,8.5 -13.4,19.2 -19.6,30c3.6,-0.9 7.2,-1.7 10.5,-2.3z"/>
    <path id="svg_4" d="m287.85858,171.09205c0,-3.5 -0.1,-7 -0.4,-10.5s-0.7,-6.9 -1.2,-10.3c-0.2,-1.1 -0.4,-2.3 -0.6,-3.4c-11.4,-63.9 -67.3,-112.5 -134.5,-112.5c-37.7,0 -71.9,15.3 -96.6,40c-1.1,1.1 -2.2,2.2 -3.2,3.3c-0.7,0.7 -1.4,1.5 -2,2.2c-1.2,1.3 -2.3,2.6 -3.4,4c-0.1,0.1 -0.1,0.1 -0.2,0.2c-13.1,15.9 -22.7,34.7 -27.6,55.3c-0.6,2.5 -1.1,5 -1.6,7.5c-0.2,1.1 -0.4,2.2 -0.6,3.4c-0.3,2.3 -0.6,4.5 -0.9,6.8c-0.2,2.3 -0.4,4.6 -0.5,6.9s-0.2,4.7 -0.2,7c0,64.9 45.2,119.2 105.8,133.2c2.2,0.5 4.4,1 6.7,1.4c7.9,1.4 15.9,2.1 24.2,2.1c4.7,0 9.4,-0.2 14,-0.7c2.3,-0.2 4.6,-0.5 6.8,-0.9c1.1,-0.2 2.3,-0.4 3.4,-0.6c64.1,-11.3 112.6,-67.2 112.6,-134.4zm-59.3,-25.2c0.2,-2.9 2.9,-5.6 6,-6.2s5.4,1.3 5.1,4.2c-0.2,2.9 -2.9,5.6 -6,6.2c-3.1,0.5 -5.4,-1.3 -5.1,-4.2zm-121.9,4c0.2,-2.9 2.9,-5.6 6,-6.2s5.4,1.3 5.2,4.2s-2.9,5.6 -6,6.2s-5.4,-1.3 -5.2,-4.2zm14.8,24.8c-3.8,5.5 -5.5,10.9 -5.8,15c0,1.2 -0.1,1.8 -0.8,2.2c-6.3,4.1 -8.2,1 -8.1,-2.8c0,-0.9 0.4,-2.3 0.9,-4c-4.8,7.3 -9.1,10.9 -11.9,11.4c-3.8,0.7 -5.9,-1.9 -5.5,-6.8c0.2,-2.2 0.8,-4.8 2.1,-8c1.3,-3.3 3.3,-7.8 5.2,-11.5c0.5,-1 0.9,-1.9 1.3,-2.7c-2.9,0.6 -6.9,1.4 -11.7,2.5c-0.1,0.2 -0.1,0.2 -0.2,0.3c-2,9.5 -2.2,13 -3.3,21.3c-0.5,3.6 0.2,7.5 -4.1,8.1s-5.7,-3.8 -5.7,-7.6c-0.1,-3.8 0.7,-8.5 3.4,-19.7c-4.5,1.1 -9.2,2.4 -13.9,3.9c-0.1,0.1 -0.1,0.2 -0.1,0.2c-7.8,14.2 -15.4,31.8 -16.7,37.4c-1,4.6 -3.1,5.9 -6.1,4.6s-4.8,-4.4 -3.7,-7.8c2,-6.1 8.1,-19.8 13.5,-29.6c0,0 0,-0.1 0.1,-0.4c-4,1.5 -7.6,3.2 -10.9,5c-2.1,1.1 -4.8,0.1 -5.3,-2.3c-0.4,-1.7 -1.2,-5 2.9,-6.8c6.2,-2.7 12.9,-5 19.6,-7c14.3,-24 32,-48.6 37.1,-48.2c2.2,0.2 1.9,2.6 3.8,4.7c1.9,2.2 2.2,3.5 -0.1,9.2c-4.7,11.7 -4.3,9 -8.9,27.2c8.3,-1.4 15.5,-2.2 16.2,-2.3c2.3,-0.3 6.2,1.2 4.1,5.7c0,0 -2.2,3.8 -3,5.5c-1.6,2.7 -3.6,6.8 -4.8,9.6c-0.8,1.6 -1.1,2.9 -1.2,3.8c-0.1,0.6 0.2,0.9 0.6,0.8c0.6,-0.1 1.6,-0.8 2.7,-2c1.1,-1.3 4.8,-4.3 11.4,-15.4l1.7,-3.6c0.6,-1.1 1.4,-3 1.5,-3.8c0.2,-1.3 0.2,-1.6 1.3,-2.3c1.7,-1.1 4.9,-2 6.7,-0.8c1.7,1.1 1.3,3.2 -0.2,5.7c5.7,-6.5 7.2,-6.7 8.5,-6.9c2.4,-0.4 7.8,2.8 5.2,5.9c-2.7,3.1 -5.7,2.5 -10.5,4.5c-2.3,1.1 -4.3,3.5 -7.3,7.8zm60.6,16.8c-0.5,3.6 0.2,7.5 -4.1,8.1s-5.8,-3.8 -5.8,-7.6c0,-6.7 3.4,-19.8 3.4,-19.9c-4.4,1.1 -9.1,2.4 -13.7,3.8c-5.6,9.4 -15.7,32.2 -16.9,37.8c-1,4.6 -3.1,5.9 -6.1,4.6s-4.7,-4.3 -3.7,-7.7c2.8,-9.4 13.5,-29.8 13.6,-30.1c-4,1.6 -7.6,3.3 -10.8,5.1c-2,1.1 -4.5,0.1 -5,-2.3c-0.4,-1.7 -1.1,-5 2.7,-6.8c6.2,-2.8 12.9,-5.2 19.6,-7.1c14.2,-23.9 31.9,-48.5 37,-48c2.2,0.2 1.9,2.6 3.8,4.7s2.2,3.5 -0.1,9.2c-4.7,11.7 -4.3,9 -8.8,27.3c0.4,-0.1 0.9,-0.1 1.3,-0.2c1.8,-0.3 7.8,-1 7.6,1.5c-0.4,4 -1.9,4 -7.2,5.1c-1,0.2 -2.1,0.5 -3.2,0.7c-0.1,0.3 -0.2,0.4 -0.2,0.4c-2.1,9.6 -2.3,13.1 -3.4,21.4zm21.9,-19.5c1,3 5.2,5.3 5.2,9.7c-0.1,11.3 -10.4,13.5 -13.9,13.9c-2.8,0.3 -8.8,-1 -9.8,-5.7c-0.4,-1.5 1.9,-5.6 2.4,-6.3c0.8,-1.2 2.1,-0.5 2.5,0.1c1,1.3 6,5.8 9,2.9c1.9,-1.8 -1.1,-4.2 -2.3,-6.2c-4.5,-7.2 1.6,-15.6 3.5,-17.4c4.2,-4 7.1,-4.3 9.2,-4.4c6,-0.2 8,3.1 7.6,5c-0.5,2.1 -1.7,3.4 -2.5,4.2c-0.6,0.6 -2.3,0.8 -2.8,0c-1.3,-1.8 -2,-4.2 -5.7,-2.8c-2.9,1.2 -3,5.1 -2.4,7zm43.4,9.2c-0.2,0 -0.4,0.2 -0.9,0.6c-3.4,3.6 -6,5.9 -9.2,6.3c-4.7,0.6 -7.5,-3.1 -6.8,-8.4c-1.3,1.9 -2.6,3.7 -3.8,5c-3.7,4.1 -6.7,6.7 -9.5,7.1c-3.8,0.5 -5.8,-2.2 -5.1,-7c0.3,-2.2 1.1,-4.7 2.5,-8c1.4,-3.2 3.7,-7.6 5.7,-11.2c1.7,-3 3.2,-6.3 3.5,-7.4c0.2,-0.9 0.3,-1.1 1,-1.5c0.9,-0.6 2.6,-1.4 3.7,-1.5c2.7,-0.2 6.2,1.7 3.9,5.7l-0.9,1.5c-0.1,0.3 -1.7,3.2 -2.7,4.8c-1.7,2.7 -3.9,6.7 -5.3,9.3c-0.9,1.6 -1.3,2.8 -1.4,3.7c-0.1,0.6 0.1,1 0.6,0.9c0.7,-0.1 1.6,-0.7 2.8,-1.9c1.2,-1.3 1.9,-2.1 4.6,-5.6l1,-1.2c0.8,-1 6.9,-9 8.7,-11c4.9,-5.9 10.5,-10 14.1,-10.5c2.3,-0.3 4.2,0.7 5.2,2.9c0.6,1.8 0.8,1.9 2.3,2.6c2.5,1 3.3,1.8 3.1,3.1c-0.1,0.9 -0.4,1.6 -2,4.1c-1.1,1.9 -2.4,4.2 -3.2,5.9c-1.9,3.7 -2.9,6.2 -1.1,6.8c0.7,0.2 2,-0.4 3.5,-2.1c1.7,-1.9 3,-3.7 4.4,-5.8c1.4,-2.2 4.4,-1.5 3.6,0.5c-0.7,1.8 -2,4.6 -5.3,8.5c-4.1,5 -7.8,7.4 -11.2,7.9c-2.7,0.4 -4.7,-0.8 -5.1,-3.2l-0.2,-0.3c0,-0.4 -0.2,-0.6 -0.5,-0.6z"/>
    <path id="svg_5" d="m167.25858,166.39205c3.6,-0.8 7.2,-1.6 10.4,-2.2c2.7,-9.9 5.9,-20.1 9.1,-27.7c-6.3,8.4 -13.2,19.2 -19.5,29.9z"/>
    <path id="svg_6" d="m254.15858,158.09205c-1.1,0.1 -3.6,2.2 -6,5.1c-3.5,4.2 -8.1,12.6 -8.5,15.3c-0.2,1.1 0.3,1.9 1.1,1.8c1.3,-0.2 3.5,-2.1 5.9,-5.2c3.2,-4 8.2,-13.1 8.5,-15.6c0.2,-1 -0.1,-1.5 -1,-1.4z"/>
   </g>
  </g>
 </g>

</svg>