<?xml version="1.0" encoding="utf-8"?>
<!-- Generator: Adobe Illustrator 19.0.0, SVG Export Plug-In . SVG Version: 6.00 Build 0)  -->
<svg version="1.1" id="Layer_1" xmlns="http://www.w3.org/2000/svg" xmlns:xlink="http://www.w3.org/1999/xlink" x="0px" y="0px"
	 viewBox="0 0 500 500" style="enable-background:new 0 0 500 500;" xml:space="preserve">
<style type="text/css">
	.st0{fill:#E23546;}
</style>
<g id="XMLID_1_">
	<path id="XMLID_3_" class="st0" d="M272.6,139c-2,1.9-4.7,6.7-4.7,13.6c0,1.6,0,40.7,0,42.1c0,3.5-1.3,6.8-3.4,8.7
		c-1.1,1-8,7.2-8.4,7.6h4c1.2-1.1,13.7-12.2,15-13.6c1.7-1.9,5.7-6.8,5.7-14.5c0-1.8,0-38.9,0-40.5c0-6.1,2.8-9.4,4.3-11.1
		c1.5-1.7,6.2-5.8,7.4-6.8l-3.9,0C287.6,125.4,273.9,137.7,272.6,139"/>
	<path id="XMLID_4_" class="st0" d="M241.7,292.4l15.3,13.4h10.3c10.4,0,19.9-4.5,26.2-10.7c6.3-6.3,8.6-14.7,8.6-22.6
		c0-5.7,0-20.9,0-21.9c0-7.4-4.6-11.6-5.9-12.9c-0.7-0.7-5.2-4.9-5.2-4.9v16.8c0,0,4.9,5.1,5.9,6.1c4.6,4.8,4.5,13.6-9.9,27.6
		c-2.5,2.5-9.7,9.2-19.6,9.2C266,292.4,241.7,292.4,241.7,292.4"/>
	<path id="XMLID_7_" class="st0" d="M303.9,214.7c0,0,4.4,5,6.1,6.4c5.8,4.6,8.3-0.7,4.6-6.6C313.7,213.1,310.1,210.7,303.9,214.7
		 M284.2,202.5c-1.7,1.8-3.3,6.2-3.3,10.1c0,2.2,0,8.3,0,8.3s6.7,0,8.4,0c3.3,0,6.2-2.4,8.5-4.6v-8.2c0,0,2.2,2.5,4.1,4.5
		c2.8-2.6,10.1-10.2,15.4-10.2c10.7,0,8.3,13.4,3.9,17.7c-1.4,1.4-7.7,7.2-9.7,9c-5,4.8-13.7,2.5-13.7-9.9c0,0-9.3,8.8-10.7,10
		c-1.4,1.2-6.2,6.2-6.2,6.2s0,19.8,0,21.9c0,10.5-3.2,14.3-6.3,17.2c-1.4,1.3-12.7,11.5-14.7,13.3h-4c0,0,7.3-6.3,8.6-7.8
		c1.6-1.6,3.4-5,3.4-10.5c0-1.4-0.2-34.3-0.2-34.3s-51.3,0-53.7,0c-18.7,0-22.7-20.7-22.8-26.3c0-1.6,0-18.2,0-20.8
		c0-3.4-2.2-9.1-5.7-10.9h5.3c0.6,0.3,3.9,1.6,3.9,14.3c0,0-0.2,14.8-0.2,15.6c0,6.4,5.1,13.8,12.5,13.8c1.5,0,60.8-0.1,60.8-0.1
		c0.1-1.6,1.7-7.8,4.6-11.1c1.6-1.9,14.7-13.8,16.2-14.9l3.9,0C291.9,195.3,285.6,201,284.2,202.5z"/>
	<path id="XMLID_8_" class="st0" d="M239,254.1c0,2.9-9.4,10.7-9.9,11.3c-0.7-3.2-3-6.6-10-13.6l10.3-10.3
		C236.2,248.3,239,249.8,239,254.1"/>
	<path id="XMLID_11_" class="st0" d="M221.1,193.7c-2.8,2.9-3.3,3.7-5.9,5.3c0.2,0,31.1,0,32.1,0c8.7,0,7-5.4,5.4-8.1
		c-3.2-5.6-13.3-16-13.3-16S221.6,193.1,221.1,193.7 M256.8,136.5c2.1,2.1,6.5,7.6,3.8,10.3c-2.4,2.3-6,6.1-6,6.1
		c-0.2-1.4-3.6-4.6-3.6-4.6s0,9.9,0,11.1c-0.1,4.5-1.8,5.7-1.8,5.7s8.3,8.2,8.3,18.7c0,5.1,0,9.8,0,10.8c0,2.2-0.5,3.8-2,5.5
		c-0.7,0.8-8.4,8.5-9.6,9.6c-2.2,2-4.5,2.3-6.3,2.3c-1.2,0-27.7,0-28.5,0c-4.5,0-9.1-3.5-9.1-7c0-0.9,0.1-10.6,0.1-10.6
		c1.5,1.7,2.9,3.7,6.5,3.6c2.8-0.1,5.7-2.2,6.5-3c0.8-0.8,21.5-22.5,21.5-22.5s-9.7-9-16.1-13.3c-3.1-2.1-7.3,0.6-7.9,3.3
		c-2,8.6,0,21.6,0,21.6s-6.3-6.3-7.9-7.9c-3.2-3.2-3.1-10.4,0.7-14.1c0.6-0.6,6.3-7.1,13.6-7.1c1.2,0,10.1,0,11.4,0
		c7.6,0,15.9,7.5,15.9,7.5s1.2-1.4,1.2-2.6c0-3.9,0-14.3,0-14.3c-5.7-5.7-6.5-11.7-3.8-14.4c5.1-5.1,7-6.9,7-6.9
		S250.8,130.5,256.8,136.5z"/>
	<path id="XMLID_12_" class="st0" d="M184.5,222.9h-5.3c0,0,5.7,3.1,5.7,11.1c0,2.1,0,23.9,0,25.6c0,16.7,13.7,32.1,30.4,32.1
		c2.8,0,12.1,0,13.9,0c8.4,0,11.3-2,16.4-6.5c1.8-1.6,4.3-4.4,5.2-5.3c2.9-3.3,6-5.9,6-14.5c0-2.1,0-7.2,0-8.4
		c0-7.2-4.2-10.3-6.2-12.3c-1.3-1.3-4.9-4.7-4.9-4.7v17.2c0,0,3.5,3.7,5.1,5c7.2,5.7,1.5,15.7-5.3,15.7c-1.3,0-28.8,0-30.6,0
		c-11.8,0-26.5-9.8-26.5-26.7c0-2.3,0-12.4,0-13.9C188.4,222.9,184.5,222.9,184.5,222.9"/>
	<path id="XMLID_13_" class="st0" d="M218,254.1c0,2.9-9.4,10.7-9.9,11.3c-0.7-3.2-3-6.7-10-13.6l10.3-10.3
		C215.2,248.4,218,249.8,218,254.1"/>
	<path id="XMLID_14_" class="st0" d="M110.8,368.1c-1.7,0-14.6,0-16.4,0c-5.1,0-4.7-4.3-5.2-7.9v-23.6c0,0,3.6-0.1,7.5-0.1
		c4.6,0,10.3-0.7,15.8,2.5c0,0-4-9.5-15.8-9.5h-7.5c0,0,0-1.4,0-4.6v-2.9c0,0,0-6.6-1.6-8.5c0,0,10.1,0,10.8,0
		c9.4,0,16.7-0.1,24.3,4.8c0,0-1.5-12.4-19.7-12.4c-10.3,0-33.9,0-35.4,0c0,0,6.3,5.3,5.9,16l0.4,42.9c0,10.8,4.2,11,4.2,11
		c0.4,0,2.6,0,12.1,0c1.6,0,3.5,0,5.5,0c5.1,0,11.8,0,17.2,0c7.9,0,10.7-5.6,10.7-8.7l0.1-4.1C123.7,362.9,121.2,368.1,110.8,368.1"
		/>
	<path id="XMLID_15_" class="st0" d="M203.6,364.4v-30c0-11.6-9.6-14.7-16.6-14.7c-9.3,0-12.2,7.9-13.3,10.5
		c-2.1-7.3-9.5-10.6-15.5-10.6c-11.2,0-14.1,10.8-14.1,10.8s-0.3-10.4-9.4-10.4l-8.9,0c0,0,5.1,2.1,5.1,11.1l0,33.3
		c0,11.1,4.5,11.2,4.5,11.2h14.8c-0.4-0.1-5.7-4.1-5.7-11.3v-29.5c0.2-1.3,2.4-5.7,8.8-5.7c3.5,0,7.4,3.7,7.3,7.9l0,27.4
		c0,11.2,4.4,11.2,4.4,11.2h14.8c0,0-5.7-4-5.7-11.3l0-29.5c0.5-1.7,2.5-5.6,8.1-5.6c4.4,0,8,3.7,7.9,7.9c0,0,0,25,0,27.4
		c0.1,11.2,4.4,11.1,4.4,11.1c7.7,0,14.8,0,14.8,0S203.6,371.7,203.6,364.4"/>
	<path id="XMLID_16_" class="st0" d="M229.4,364.4c0,7.4,5.7,11.2,5.7,11.2s-7,0-14.8,0c0,0-4.4,0.1-4.4-11.1v-0.1l0-33.4
		c0-8.8-5.1-11-5.1-11h8.8c3.1,0,9.7,0,9.7,12.4L229.4,364.4L229.4,364.4"/>
	<path id="XMLID_17_" class="st0" d="M274.7,324.2c0,0-1.4-4-7.5-4c-9.3,0-11.5,10.9-11.5,10.9c-0.8-8.6-3.1-11.2-9.5-11.2l-8.9,0
		c0,0,5.2,2.1,5.2,11.1l0,33.4c0,11.1,4.4,11.2,4.4,11.2h14.6c-0.4-0.1-5.6-4.1-5.6-11.3l0-27.3c0.4-2.5,1.6-4.4,3.6-5.7
		c4.8-3.1,11.5-2.3,15.3,2.2C274.7,333.6,274.7,327.7,274.7,324.2"/>
	<path id="XMLID_18_" class="st0" d="M343.1,326.2c5,0,8.7,2.2,8.7,2.2l0-8.4h-12.3v-12.7c0,0-3.2,5.7-9.9,11.1
		c-4.2,3.5-13,7.7-13,7.7l9.4,0.2l0,38.7c0,10.7,4.5,10.7,4.5,10.7c8.1,0,14.6,0,14.6,0s-5.6-3.8-5.6-10.9l0-38.6
		C343.4,326.2,340.7,326.2,343.1,326.2"/>
	<path id="XMLID_21_" class="st0" d="M378.8,339.5c2.4-4.5,4.4-15.9-4-15.3c-9.6,0.7-7.7,26.4-7.7,26.4
		C370.2,347,375.1,346.3,378.8,339.5 M387.9,343c-8.3,8.6-14.8,7.2-19.8,13.6c0,0,0.8,8.6,7.3,11.6c2.2,1,11.3,3.9,17.2-6.3l0,9.8
		c0,0-3.8,4.1-15.8,4.1c-14.4,0-24.3-11.3-24.3-26.7c0-15.1,8.1-29.2,23.2-29.3C390.6,319.6,398.7,331.6,387.9,343z"/>
	<path id="XMLID_22_" class="st0" d="M222.5,315.5c3.8,0,6.9-2.9,6.9-6.7c0-3.7-3.1-6.8-6.9-6.8s-6.7,3-6.7,6.8
		C215.7,312.5,218.7,315.5,222.5,315.5"/>
	<path id="XMLID_23_" class="st0" d="M420.3,360.5c0.1,3.9-3.4,9.1-10.9,9.1c-7.3,0-10.6-7.9-10.6-7.9l-0.1,10c0,0,5.4,3.9,13.9,3.9
		h0c10.1,0,20.1-7.6,19.8-18.2c-0.1-3.8-1.4-7-3.4-9.7c-3.4-4.5-9.6-7.8-14.5-10.7c-6.7-3.9-5.8-12.1,4-11.4
		c7.3,0.6,10.4,7.6,10.4,7.6V324c0,0-5.6-4.5-14.2-4.5c-8.8,0-16.7,5.9-16.5,13.3c0.2,6.6,2.9,10.9,8.3,14.8
		c2.1,1.6,4.7,3.1,7.6,4.8C418.6,354.8,420.2,357.7,420.3,360.5"/>
	<path id="XMLID_26_" class="st0" d="M299.9,332.2c0,5.4-4.6,7.9-7.6,9.2c-8.8,3.8-20,8.1-20,20.8c0,8.5,6.2,13.4,14.9,13.4
		c6.7,0,10-3.4,11.7-6.7c1,6.3,4.1,6.6,4.1,6.6c7.7,0,14.7,0,14.7,0s-5.7-3.9-5.7-11.2v-31.2c0-7.5-8.3-13.3-17.1-13.3
		c-8.5,0-13.8,4.1-13.8,4.1c0,2.5,0,9.7,0,9.7s3-7.7,10.7-7.7C298,326,299.9,329.1,299.9,332.2 M291.9,369.3c-4.6,0-7.8-2.5-7.8-7.8
		c0-12.5,11.4-15.1,14.4-18.8l0,23.4C298.4,366.2,296.5,369.3,291.9,369.3z"/>
</g>
</svg>
