<?xml version="1.0" standalone="no"?>
<!DOCTYPE svg PUBLIC "-//W3C//DTD SVG 20010904//EN"
 "http://www.w3.org/TR/2001/REC-SVG-20010904/DTD/svg10.dtd">
<svg version="1.0" xmlns="http://www.w3.org/2000/svg"
 width="300.000000pt" height="135.000000pt" viewBox="0 0 300.000000 135.000000"
 preserveAspectRatio="xMidYMid meet">

<g transform="translate(0.000000,135.000000) scale(0.100000,-0.100000)"
fill="#000000" stroke="none">
<path d="M1504 372 c-36 -5 -57 -38 -62 -97 -6 -69 14 -75 23 -7 8 64 17 77
51 77 l29 0 -3 -62 c-3 -60 10 -85 22 -45 8 25 10 107 3 119 -8 13 -35 20 -63
15z"/>
<path d="M907 358 c-9 -7 -21 -37 -27 -67 -13 -69 -13 -71 4 -71 9 0 15 18 19
51 7 56 20 79 47 79 24 0 30 -20 23 -80 -7 -59 13 -71 22 -12 11 72 19 87 45
87 24 0 25 -3 25 -62 0 -42 4 -63 12 -63 15 0 29 108 16 129 -13 20 -60 26
-79 10 -11 -9 -18 -9 -26 -1 -16 16 -60 15 -81 0z"/>
<path d="M1137 313 c-8 -80 18 -117 65 -92 28 15 35 3 12 -22 -14 -16 -26 -20
-52 -15 -23 3 -32 1 -29 -7 5 -16 61 -21 86 -7 22 11 36 54 47 144 5 47 4 58
-7 54 -8 -3 -16 -24 -19 -50 -7 -54 -25 -80 -54 -76 -19 3 -21 9 -19 66 1 45
-2 62 -11 62 -9 0 -15 -20 -19 -57z"/>
<path d="M1317 363 c-15 -14 -5 -20 30 -19 28 1 38 -3 41 -16 3 -14 -3 -18
-25 -18 -64 0 -102 -70 -48 -90 34 -13 84 6 89 33 20 97 12 117 -43 117 -21 0
-41 -3 -44 -7z m61 -95 c-4 -31 -58 -40 -58 -9 0 20 12 29 43 30 14 1 18 -5
15 -21z"/>
<path d="M1626 348 c-8 -13 -18 -47 -22 -77 -6 -44 -4 -53 7 -49 8 3 17 26 21
58 6 50 18 70 45 70 21 0 29 -29 23 -80 -5 -37 -3 -50 6 -50 8 0 16 20 20 48
9 64 21 84 47 80 20 -3 22 -9 21 -65 -1 -44 3 -63 11 -63 18 0 29 103 15 129
-12 23 -49 28 -80 11 -13 -7 -21 -7 -25 0 -3 5 -22 10 -40 10 -25 0 -39 -6
-49 -22z"/>
<path d="M1881 356 c-9 -11 -4 -13 26 -12 28 1 38 -3 41 -16 3 -14 -3 -18 -25
-18 -36 0 -73 -25 -73 -50 0 -45 88 -62 109 -21 17 32 23 101 11 116 -16 19
-74 19 -89 1z m69 -75 c0 -25 -14 -41 -36 -41 -28 0 -44 28 -23 41 18 12 59
11 59 0z"/>
<path d="M2031 357 c-9 -12 -31 -101 -31 -128 0 -5 7 -9 15 -9 10 0 15 10 15
34 0 48 17 87 40 93 11 3 20 9 20 14 0 14 -46 10 -59 -4z"/>
</g>
</svg>
