<?xml version="1.0" encoding="utf-8"?>
<!-- Generator: Adobe Illustrator 19.0.0, SVG Export Plug-In . SVG Version: 6.00 Build 0)  -->
<svg version="1.1" id="Layer_1" xmlns="http://www.w3.org/2000/svg" xmlns:xlink="http://www.w3.org/1999/xlink" x="0px" y="0px"
	 viewBox="0 0 500 500" style="enable-background:new 0 0 500 500;" xml:space="preserve">
<style type="text/css">
	.st0{fill:#505967;}
	.st1{fill:#5C0632;}
	.st2{fill:#747F8A;}
</style>
<g id="XMLID_41_">
	<path id="XMLID_48_" class="st0" d="M132.9,290.5c-0.8,0.1-1.6,0.1-2.4,0.1c-0.9,0-1.8-0.1-2.7-0.1l2.6-6.3L132.9,290.5z
		 M135.8,297.6c0.5,0,1.2-0.2,1.9-0.2c0.7,0,1.6,0.1,2,0.2c-1.2-2.5-2.8-6.3-3.8-8.6c-0.9-2.1-2.5-5.7-3.7-9.2
		c-0.3,0.1-0.5,0.1-0.8,0.1c-0.3,0-0.6-0.1-0.8-0.1c-0.6,2.1-2.1,5.4-4.7,11.2l-3,6.6c0.4-0.1,0.7-0.2,1.1-0.2
		c0.4,0,0.9,0.1,1.2,0.2c0.4-1.5,1.2-3.6,2-5.5c1-0.1,2-0.1,3.1-0.1c1.1,0,2.2,0,3.3,0.1l1.1,2.7L135.8,297.6z"/>
	<path id="XMLID_49_" class="st0" d="M141.9,286c0,4.4,0,8.6-0.3,11.6c0.6,0,1.3-0.2,1.8-0.2c0.6,0,1.2,0.1,1.8,0.2
		c-0.2-2.1-0.3-4.8-0.3-8.6c0-2.6,0-7,0.3-8.9c-0.6,0.1-1.3,0.2-1.8,0.2c-0.4,0-1.3-0.1-1.8-0.2C141.9,282.6,141.9,284.4,141.9,286"
		/>
	<path id="XMLID_52_" class="st0" d="M157.1,289c2.3-0.4,4.4-1.9,4.4-4.7c0-1.1-0.4-2.1-1.2-2.9c-1.1-1-2.4-1.3-4-1.3
		c-0.6,0-3.6,0.1-4.2,0.1c-1.3,0-2-0.1-2.6-0.1c0.2,3.3,0.2,3.7,0.2,7c0,4.9,0,5.5-0.2,10.5c0.6-0.1,1.2-0.2,1.8-0.2
		c0.6,0,1.2,0.1,1.7,0.2c0-0.7-0.1-4-0.1-4.7v-3.6h0.6c1.4,1.9,3,4.2,4.3,6.2c0.4,0.6,0.9,1.5,1.3,2.1c0.8-0.1,1.1-0.2,2.1-0.2
		c0.9,0,1.6,0.1,2.3,0.2c-1.6-2-2.3-2.9-4.3-5.7c-0.4-0.5-0.9-1.4-1.3-1.9L157.1,289z M152.9,281.5c0.4,0,1.3-0.1,1.8-0.1
		c0.8,0,1.7,0.1,2.4,0.6c0.9,0.7,1.1,1.6,1.1,2.7c0,1.7-0.9,3.5-3.5,3.5c-0.7,0-1.3-0.1-1.8-0.1V281.5z"/>
	<path id="XMLID_53_" class="st0" d="M170.4,291.7c-1.2-3.6-2.9-8.5-3.7-11.6c-0.6,0.1-1.2,0.2-1.8,0.2c-0.6,0-1.5-0.1-2-0.2
		c1,2.8,1.9,5.2,2.6,7.2c1.2,3.3,1.9,5.6,2.9,8.4l0.6,1.9c0.4-0.1,0.8-0.2,1-0.2c0.3,0,0.5,0,1,0.2c0.4-1.3,0.9-3,1.3-4
		c1-2.9,1.1-3.3,2.4-6.9l0.8-2.1c0.3,0.8,0.8,2.1,1,2.9c0.3,0.8,1.6,4.7,1.9,5.6c0.4,1.1,0.5,1.5,1.5,4.6c0.2,0,0.7-0.2,1.1-0.2
		c0.4,0,0.6,0.1,1,0.2c1-3,1.1-3.3,2.5-7.4c1.4-4,2.3-6.3,3.8-10.1c-0.4,0.1-0.8,0.2-1.1,0.2c-0.5,0-0.9-0.1-1.2-0.2
		c-0.9,3.3-1.4,4.9-2.1,7.1c-1.2,3.6-1.4,4-2.1,5.9c-0.8-2.2-1.6-4.4-2.4-6.7c-0.4-1.2-2-6.3-2-6.4c-0.4,0.1-0.6,0.2-1.1,0.2
		c-0.5,0-0.8-0.1-1.1-0.2c-0.8,3.1-3.5,10.6-3.7,11.3l-0.6,1.7L170.4,291.7z"/>
	<path id="XMLID_56_" class="st0" d="M196.2,290.5c-0.8,0.1-1.6,0.1-2.4,0.1c-0.9,0-1.8-0.1-2.7-0.1l2.6-6.3L196.2,290.5z
		 M199.1,297.6c0.5,0,1.2-0.2,1.9-0.2c0.7,0,1.6,0.1,2,0.2c-1.1-2.5-2.8-6.3-3.8-8.6c-0.9-2.1-2.5-5.7-3.7-9.2
		c-0.3,0.1-0.5,0.1-0.8,0.1c-0.3,0-0.6-0.1-0.8-0.1c-0.6,2.1-2.1,5.4-4.7,11.2l-3,6.6c0.4-0.1,0.7-0.2,1.2-0.2
		c0.4,0,0.9,0.1,1.2,0.2c0.4-1.5,1.2-3.6,2-5.5c1-0.1,2-0.1,3.1-0.1c1.1,0,2.2,0,3.3,0.1l1.1,2.7L199.1,297.6z"/>
	<path id="XMLID_58_" class="st0" d="M209.8,290.8c0-0.2,0.2-0.5,0.3-0.8c1.1-1.8,2.1-3.8,3.2-5.6c0.4-0.6,2.2-3.6,2.6-4.3
		c-0.3,0.1-0.6,0.2-1.1,0.2c-0.6,0-1.1-0.1-1.5-0.2c-1.8,4-2.2,4.9-4.4,8.6c-2.2-3.8-3.1-5.8-4.5-8.6c-0.7,0.1-1.5,0.2-2.1,0.2
		c-0.6,0-1.2-0.1-2.1-0.2c1.3,2.2,3.5,5.8,4.8,8l1.5,2.6c0,1.6-0.1,4.9-0.2,6.9c0.5-0.1,1.2-0.2,1.7-0.2c0.6,0,1.2,0.1,1.8,0.2
		c-0.1-2.4-0.2-3.8-0.2-5.9V290.8z"/>
	<path id="XMLID_59_" class="st0" d="M217.5,293.8c-0.1,1.2-0.2,1.6-0.6,2.9c0.9,0.5,2.6,1.3,4.8,1.3c4.7,0,6.5-3,6.5-5.6
		c0-0.7-0.2-2.2-1.3-3.4c-0.7-0.8-1.5-1.1-3.5-1.9c-2.2-0.9-3.6-1.4-3.6-3.2c0-1.5,1-2.8,3-2.8c1.6,0,3,0.8,3.3,2.2h0.4
		c0.2-1,0.3-1.2,0.8-2.4c-1.3-0.6-2.4-1-4.2-1c-4.6,0-6,2.9-6,5.1c0,2.1,0.7,3.4,3.2,4.5c0.7,0.3,1.9,0.8,2.6,1.1
		c0.5,0.2,2.1,0.9,2.1,2.9c0,1.8-1.3,3.2-3.3,3.2c-1.5,0-2.8-0.4-4-2.9H217.5z"/>
	<path id="XMLID_65_" class="st1" d="M75.5,246.6c0-19.3,10.3-24.5,18.2-24.5c12.6,0,18,10.4,18,21.5c0,6.4-0.8,12.3-3.9,17.2
		c-3.1,4.8-8.4,7.7-14,7.7C79.6,268.5,75.5,255,75.5,246.6 M113.7,286.1c2.3-1.6,5.9-3.6,8.5-4.8l-17.3-10.7
		c10.7-3.8,17.3-13.3,17.3-26.2c0-18.4-14-26.2-28.4-26.2c-15.5,0-28.8,8.6-28.8,28.1c0,4.1,0.9,12,7.4,18.5
		c6.7,6.7,14.6,7.7,21.2,7.7c0.8,0,1.7,0,2.5-0.1L113.7,286.1z"/>
	<path id="XMLID_72_" class="st1" d="M158,250c-2.4,0.2-4.7,0.3-7.1,0.3c-2.7,0-5.3-0.2-8-0.3l7.8-18.9L158,250z M166.6,271.3
		c1.4-0.1,3.5-0.5,5.7-0.5c2.2,0,4.8,0.4,6,0.5c-3.5-7.4-8.5-19-11.4-25.7c-2.8-6.4-7.4-17.2-11-27.7c-0.8,0.2-1.6,0.4-2.5,0.4
		c-0.9,0-1.7-0.2-2.5-0.4c-1.8,6.3-6.3,16.3-14,33.6l-8.9,19.8c1.1-0.2,2.1-0.5,3.5-0.5c1.2,0,2.7,0.3,3.7,0.5
		c1.2-4.4,3.7-10.7,6.1-16.6c3.1-0.2,6.1-0.3,9.2-0.3c3.3,0,6.5,0.2,9.8,0.3l3.2,8.1L166.6,271.3z"/>
	<path id="XMLID_73_" class="st1" d="M200.6,232.5c0-2.9,0.1-5.8,0.2-8.6c5.3,0,10.7,0.1,15.3,0.5c-0.2-1.2-0.4-1.9-0.4-2.8
		c0-0.6,0.2-1.6,0.4-2.9c-7.4,0.4-14.1,0.5-20.5,0.5c-5.9,0-14.4-0.1-20.5-0.5c0.2,0.9,0.4,1.9,0.4,2.8c0,0.9-0.2,1.9-0.4,2.8
		c3.9-0.4,11.3-0.5,12-0.5h3.8c0.1,3,0.2,5.7,0.2,8.5l0.1,21.4c0,5.8-0.5,11.7-0.8,17.6c2.8-0.3,3.9-0.5,5.2-0.5
		c0.9,0,3.4,0.2,5.6,0.5c-0.2-2.1-0.5-4.7-0.5-10.5V232.5z"/>
	<path id="XMLID_76_" class="st1" d="M243.3,250c-2.4,0.2-4.7,0.3-7.1,0.3c-2.7,0-5.3-0.2-8-0.3l7.8-18.9L243.3,250z M252,271.3
		c1.4-0.1,3.5-0.5,5.7-0.5c2.1,0,4.8,0.4,6,0.5c-3.5-7.4-8.5-19-11.4-25.7c-2.8-6.4-7.4-17.2-11-27.7c-0.8,0.2-1.6,0.4-2.5,0.4
		c-0.9,0-1.7-0.2-2.5-0.4c-1.8,6.3-6.3,16.3-14,33.6l-8.9,19.8c1.1-0.2,2.1-0.5,3.5-0.5c1.2,0,2.7,0.3,3.7,0.5
		c1.2-4.4,3.7-10.7,6.1-16.6c3.1-0.2,6.1-0.3,9.2-0.3c3.3,0,6.5,0.2,9.8,0.3l3.2,8.1L252,271.3z"/>
	<path id="XMLID_79_" class="st1" d="M294.5,245.3c7-1.3,13.3-5.7,13.3-14.2c0-3.2-1.2-6.4-3.5-8.6c-3.3-3.1-7.1-3.8-12-3.8
		c-1.8,0-10.7,0.4-12.7,0.4c-3.9,0-5.9-0.2-7.7-0.4c0.5,9.9,0.5,11,0.5,21c0,14.8-0.1,16.5-0.7,31.6c1.7-0.2,3.5-0.5,5.3-0.5
		c1.9,0,3.6,0.3,5.1,0.5c0-2-0.3-11.9-0.3-14.1v-10.9h1.8c4.1,5.8,8.9,12.6,12.8,18.6c1.1,1.8,2.8,4.6,4,6.4
		c2.3-0.3,3.2-0.5,6.2-0.5c2.8,0,4.7,0.2,6.8,0.5c-4.8-6.1-6.9-8.7-13-17.2c-1.2-1.6-2.8-4.1-4-5.8L294.5,245.3z M281.9,222.9
		c1.1-0.1,4-0.4,5.4-0.4c2.5,0,5.1,0.4,7.1,1.9c2.7,2,3.2,4.8,3.2,8c0,5-2.8,10.6-10.5,10.6c-2,0-3.8-0.2-5.3-0.2V222.9z"/>
	<path id="XMLID_80_" class="st2" d="M409.1,245.4c0,0.5-6.9,1-16.8,1.3c-1.7-1-3.1-2-4-2.8C400.2,244.4,409.1,244.9,409.1,245.4"/>
	<path id="XMLID_81_" class="st2" d="M402,228.7c0,0.4-5.8,0.8-14.1,1.1c1.2-0.7,2.4-1.4,3.7-2.1C397.8,228,402,228.4,402,228.7"/>
	<path id="XMLID_82_" class="st2" d="M340,264.7c-3.8,0-7.2,0.1-9.9,0.1c-3.8,0-6.9-1.2-6.9-2.6c0-1.4,3.1-2.6,6.9-2.6
		c3.4,0,7.9,0,13.1,0.1c-2,2.9-3,4.7-3.1,4.8C340.2,264.5,340.1,264.6,340,264.7"/>
	<path id="XMLID_83_" class="st2" d="M342.1,268.2c1.3,1.5,2.5,2.8,4.1,4.2c0,0,0.6,0.9,2.5,0.1c1.9-0.8,3.5-1.8,5.3-4.3
		c5.3,0.1,10.9,0.2,16.4,0.3c0.5,0.7,1.4,2,2.5,3.7c-15.4,0.4-32.1,0.6-40.7,0.6c-3.6,0-6.5-1.1-6.5-2.5c0-1.4,2.9-2.5,6.5-2.5
		C334.9,268.1,338.2,268.1,342.1,268.2L342.1,268.2"/>
	<path id="XMLID_84_" class="st2" d="M336.1,281c-3.2,0-5.7-1-5.7-2.2c0-1.2,2.6-2.2,5.7-2.2c8.4,0,25.6,0.3,40.3,0.7
		c0.7,1,1.4,2,2.1,3C363.3,280.8,344.9,281,336.1,281"/>
	<path id="XMLID_85_" class="st2" d="M385,288c-12.4,0.5-33.6,0.9-42.4,0.9c-2.5,0-4.5-0.8-4.5-1.7c0-0.9,2-1.7,4.5-1.7
		c8.4,0,28.3,0.3,40.8,0.8C383.9,286.9,384.5,287.5,385,288"/>
	<path id="XMLID_86_" class="st2" d="M352.8,292.7c7.3,0,29.5,0.5,29.5,1.2c0,0.7-22.2,1.2-29.5,1.2c-1.4,0-2.6-0.5-2.6-1.2
		C350.2,293.2,351.3,292.7,352.8,292.7"/>
	<path id="XMLID_87_" class="st2" d="M352.8,247.8c-9.2,0.2-17.4,0.2-22.7,0.2c-3.8,0-6.9-1.2-6.9-2.6c0-1.4,3.1-2.6,6.9-2.6
		c6.1,0,16.2,0.1,27.2,0.3C355.7,244.7,354.2,246.3,352.8,247.8"/>
	<path id="XMLID_88_" class="st2" d="M397.8,236.1c5.4,0.3,8.8,0.6,8.8,0.9c0,0.4-4.1,0.7-10.4,1
		C397.5,237.1,397.8,236.2,397.8,236.1"/>
	<path id="XMLID_89_" class="st2" d="M332.3,239.5c-3.6,0-6.5-1.1-6.5-2.5c0-1.4,2.9-2.5,6.5-2.5c7.3,0,20.6,0.2,33.9,0.5
		c-1.6,1.4-3.2,2.7-4.6,4.1C349.9,239.4,338.7,239.5,332.3,239.5"/>
	<path id="XMLID_90_" class="st2" d="M372.1,230.3c-13.6,0.3-28.4,0.6-36,0.6c-3.2,0-5.7-1-5.7-2.2c0-1.2,2.6-2.2,5.7-2.2
		c8.4,0,25.5,0.3,40.2,0.7c-0.7,0.5-1.5,1.1-2.2,1.6C373.4,229.3,372.8,229.8,372.1,230.3"/>
	<path id="XMLID_91_" class="st2" d="M342.6,222.1c-2.5,0-4.5-0.8-4.5-1.7c0-0.9,2-1.7,4.5-1.7c9.4,0,32.7,0.4,44.6,1
		c-0.8,0.5-1.5,1-2.3,1.5C372.5,221.7,351.4,222.1,342.6,222.1"/>
	<path id="XMLID_92_" class="st2" d="M329.5,256.4c-3.9,0-7-1.2-7-2.7c0-1.5,3.1-2.7,7-2.7c4.8,0,12.1,0.1,20.3,0.2
		c-1.5,1.8-2.9,3.5-4,5C339.2,256.4,333.5,256.4,329.5,256.4"/>
	<path id="XMLID_93_" class="st2" d="M350.2,213.7c0-0.7,1.1-1.2,2.6-1.2c7.3,0,29.5,0.5,29.5,1.2c0,0.7-22.2,1.2-29.5,1.2
		C351.3,214.9,350.2,214.4,350.2,213.7"/>
	<path id="XMLID_94_" class="st1" d="M409.8,251.8c0.1,1.3,0,2.6,0,3.9c-12.9,0.5-25.1,1.3-25.1,2.2c0,0.9,12,1.6,24.7,2.1
		c-0.2,1.5-0.5,2.9-0.9,4.3c-12.6,0.5-24.2,1.3-24.2,2.1c0,0.8,10.9,1.6,23,2.1c-0.6,1.5-1.2,3-1.9,4.5c-10.4,0.5-18.9,1.2-18.9,1.9
		c0,0.7,7.5,1.3,16.9,1.8c-0.5,0.9-1.1,1.7-1.7,2.5c-0.6,0.9-1.3,1.7-2,2.6c-5.9,0.4-9.9,1-9.9,1.5c0,0.5,2.9,0.9,7.4,1.3
		c-2.4,2.4-5.3,4.7-8.7,6.6c0,0-4-3.4-7.3-7.5c-2.9-3.6-9.2-13-10.7-15.2c-1.5-2.1-2.4-2.7-4.2-2.1c-2.3,0.8-5,1.2-5.8,1.2
		s-1.3-0.3,0.1-0.9c1.4-0.6,6.8-3.1,9.5-8.4c3-6,0.4-14.2,0.4-14.2c-1,4.4-3.3,6.1-3.3,6.1c0.7-4.1-0.1-7.8-2.1-10.4l-1.1,5.2
		c0,0-0.7,0-2.5,1.4c-1.7,1.5-2.2,3.6-2.2,3.6c1.4,0.6,3-0.8,3-0.8c-2.1,7.9-5.1,14.3-7.3,17.7c-2.2,3.4-4,4.7-6.2,5.6
		c-1.9,0.7-2.5-0.1-2.5-0.1c-1.6-1.4-2.8-2.7-4.1-4.2c0,0-0.1-0.2,0.2-0.2c0.9,0,2.5-1.5,2.9-2.2c0.4-0.7,0.4-1.3,0.2-1.3
		c-0.2,0-0.5,0.6-2.3,1.7c-1.7,1.1-2.5,0.3-3.1-0.3c-0.5-0.5,0-1.1,0.3-1.5c0.3-0.3,9.5-17.5,33.9-35.6c32-23.7,52.4-30.1,53.5-30.5
		c0.8-0.3,2-0.7,2.3-0.4c0.3,0.3,0.5,0.6,0.4,1c0,0.4-0.2,0.6-1.7,1.2c-12.3,5.4-26.6,14.4-34.7,19.7c-10,4.9-19.6,11.8-19.9,12
		c-0.8,0.5-0.2,1.2,0.3,0.9c16.9-11.2,36.7-18.9,58.6-25.2c1-0.3,1.6-0.3,1.8-0.1c0.2,0.3,0.3,0.5,0.3,0.9c0,0.4-0.3,0.6-1.2,1
		c-23.5,8.7-40.9,16.9-52,24.4c0,0-1.2,0.7-1.2,1.5c0,0.3,0.6,0.3,0.6,0.3c5.6,0.1,13,0.4,16.6,0.6c0,0-0.5,1.8-3.9,3.2
		c-2.6,1.1-5.1,0.9-7.5,1c-0.5,0-1,0.5-0.6,1.1C386.1,241.7,391.2,249.9,409.8,251.8"/>
	<path id="XMLID_107_" class="st1" d="M239.4,294.9h-3.2c0,0-0.4-1.9,0.7-2.7c1.1-0.8,2.4-1.3,2.4-1.3V294.9z M254.4,287.6
		c0,0-1.9,1.1-3.1,2.2c-1.2,1.1,0.2,1.5,0.2,1.5v3.6h-9.1v-12.6c0,0-3.3,3.1-3.6,3.5c-0.3,0.4,0.8,0.8,0.8,0.8l-0.2,1.2
		c0,0-1.3,0.7-2.9,1.8c-1.6,1.1-2.8,2.5-2.8,3.4c0,1-0.4,4.7-0.4,4.7h21.2V287.6z M235.4,283c1,0,1.8-0.4,1.8-1.2
		c0-0.8-0.5-1.4-1.8-1.4c-1.1,0-1.5,0.5-1.5,1.4C234,282.7,234.4,283,235.4,283 M239.3,283c1.1,0,1.8-0.4,1.8-1.2
		c0-0.8-0.5-1.4-1.8-1.4c-1.2,0-1.5,0.5-1.5,1.4C237.9,282.7,238.3,283,239.3,283 M245.2,298.7c-1.1,0-1.5,0.5-1.5,1.4
		c0,0.9,0.4,1.2,1.5,1.2c1,0,1.8-0.4,1.8-1.2C247,299.3,246.5,298.7,245.2,298.7 M249.3,298.7c-1.1,0-1.5,0.5-1.5,1.4
		c0,0.9,0.4,1.2,1.5,1.2c1.1,0,1.8-0.4,1.8-1.2C251.1,299.3,250.6,298.7,249.3,298.7 M295,282.8c1.1,0,1.8-0.4,1.8-1.2
		c0-0.8-0.5-1.4-1.8-1.4c-1.1,0-1.4,0.5-1.4,1.4C293.5,282.4,293.9,282.8,295,282.8 M299,282.8c1,0,1.8-0.4,1.8-1.2
		c0-0.8-0.5-1.4-1.8-1.4c-1.1,0-1.5,0.5-1.5,1.4C297.6,282.4,297.9,282.8,299,282.8 M310.2,283.1c-0.6,0.5-0.4,1.1,0.3,1v13.6h3
		v-16.9C313.5,280.8,310.7,282.6,310.2,283.1 M298.1,290.7h-1.9c0-1.1,1.9-1.7,1.9-1.7V290.7z M285.3,292.9c0,0.5,0,1.3,0,1.9h-17
		v-3c0.4-1.1,1.2-1.3,2.3-1.3h12.4C285.7,290.6,285.3,292,285.3,292.9 M305.2,284.1v10.8h-4v-9.8c0,0-0.8,0.3-2,0.8
		c-1.1,0.5-5.2,2.2-5.2,4.4v2.6h4.1v2h-9.8c0-0.5,0-1.2,0-2.2c0-3.2-2.7-5-5.2-5h-11.3c-2,0-2.9,0.5-3.5,1v-8.3c0,0-1.8,1.2-3.1,2.2
		c-1.3,1,0,1.7,0,1.7v10.5h-3.7l-0.1-9c0,0-2.6,1.9-3.3,2.5c-0.7,0.6-0.3,1.1,0.5,1.1c0,0-0.1,6.7-0.1,8.3c0,1.6-1.3,3.4-4.1,2.6
		c0,0-0.9,0.2-0.1,0.8c0.7,0.7,1.6,1.2,2.6,1.2c1,0,4.5-0.7,4.5-4.6h46.8v-16.9c0,0-2.8,1.8-3.3,2.3
		C304.3,283.6,304.4,284.2,305.2,284.1"/>
</g>
</svg>
